<svg width="56" height="64" viewBox="0 0 56 64" xmlns="http://www.w3.org/2000/svg"><title>Fill-3</title><path d="M19.043 48h-6c-.55 0-1 .45-1 1v2c0 .55.45 1 1 1h6c.55 0 1-.45 1-1v-2c0-.55-.45-1-1-1zm9-9v-2c0-.55-.45-1-1-1h-14c-.55 0-1 .45-1 1v2c0 .55.45 1 1 1h14c.55 0 1-.45 1-1zm-15-11h14c.55 0 1-.45 1-1v-2c0-.55-.45-1-1-1h-14c-.55 0-1 .45-1 1v2c0 .55.45 1 1 1zm38.509-3.548l-14.86 25.746-3.886.732-1.308-3.735L46.36 21.453a3.016 3.016 0 0 1 2.604-1.502 2.999 2.999 0 0 1 2.588 4.5zm-7.509 31.142c0 .532-.502 1.258-.977 1.41-12.298 3.975-25.747 3.975-38.046 0-.475-.152-.977-.878-.977-1.41V8.406c0-.532.502-1.258.978-1.411 12.297-3.974 25.746-3.974 38.045 0 .475.153.977.879.977 1.41v9.569c-.441.435-.83.929-1.147 1.479l-15.78 27.332 3.051 8.713 9.071-1.71 4.805-8.325v10.13zm8.415-38.705a6.995 6.995 0 0 0-4.415-.876V8.406c0-2.285-1.611-4.528-3.747-5.217-13.095-4.231-27.412-4.231-40.505 0C1.654 3.878.043 6.12.043 8.406v47.188c0 2.285 1.611 4.528 3.747 5.217A65.758 65.758 0 0 0 24.043 64a65.747 65.747 0 0 0 20.252-3.19c2.137-.688 3.748-2.931 3.748-5.216V38.533l6.973-12.08c1.932-3.341.785-7.631-2.558-9.564z" fill="#000" fill-rule="nonzero"/></svg>