<svg width="17" height="20" viewBox="0 0 17 20" xmlns="http://www.w3.org/2000/svg"><title>calendar</title><path d="M13.755 2.43h1.632c.894 0 1.613.737 1.613 1.61v13.776c0 .894-.738 1.613-1.613 1.613H1.613C.72 19.43 0 18.69 0 17.815V4.04c0-.893.738-1.61 1.613-1.61h1.632V.815c0-.447.35-.816.796-.816.448 0 .817.35.817.816V2.43h7.286V.815c0-.447.37-.816.816-.816.446 0 .795.35.795.816V2.43zm2.43 3.632v2.04H.814v-2.04 11.754c0 .447.35.797.798.797h13.774c.447 0 .797-.35.797-.797V6.062zm-12.94 4.06c0-.233.174-.408.388-.408h1.632c.214 0 .408.175.408.408v1.613c0 .233-.175.408-.408.408H3.633c-.214 0-.388-.175-.388-.408v-1.613zm4.04 0c0-.233.176-.408.41-.408h1.61c.234 0 .41.175.41.408v1.613c0 .233-.176.408-.41.408h-1.61c-.234 0-.41-.175-.41-.408v-1.613zm4.042 0c0-.233.175-.408.408-.408h1.632c.214 0 .388.175.388.408v1.613c0 .233-.174.408-.388.408h-1.632c-.214 0-.408-.175-.408-.408v-1.613zm-8.082 4.04c0-.212.174-.407.388-.407h1.632c.214 0 .408.175.408.408v1.632c0 .214-.175.39-.408.39H3.633c-.214 0-.388-.176-.388-.39v-1.632zm4.04 0c0-.212.176-.407.41-.407h1.61c.234 0 .41.175.41.408v1.632c0 .214-.176.39-.41.39h-1.61c-.234 0-.41-.176-.41-.39v-1.632zm4.042 0c0-.212.175-.407.408-.407h1.632c.214 0 .388.175.388.408v1.632c0 .214-.174.39-.388.39h-1.632c-.214 0-.408-.176-.408-.39v-1.632z" fill-rule="nonzero" fill="#979797"/></svg>