<svg width="17" height="17" viewBox="0 0 17 17" xmlns="http://www.w3.org/2000/svg"><title>Shape</title><path d="M13.57 9.942c-.325-.34-.718-.52-1.135-.52-.413 0-.81.177-1.15.516l-1.06 1.06c-.088-.048-.176-.092-.26-.136-.12-.06-.235-.117-.332-.178-.995-.632-1.9-1.455-2.766-2.52-.42-.53-.702-.978-.907-1.43.276-.253.53-.516.78-.768l.282-.285c.706-.705.706-1.62 0-2.324l-.917-.918c-.105-.104-.212-.212-.313-.32-.202-.207-.413-.422-.632-.624C4.834 1.17 4.445 1 4.035 1c-.41 0-.807.17-1.143.494l-.007.007-1.142 1.153c-.43.43-.675.955-.73 1.563-.08.98.21 1.895.43 2.493.545 1.467 1.358 2.828 2.57 4.287 1.473 1.757 3.244 3.145 5.267 4.123.773.366 1.804.8 2.957.873.07.004.144.007.212.007.775 0 1.427-.28 1.937-.833.004-.007.01-.01.014-.017.176-.212.377-.403.59-.608.143-.138.29-.283.436-.434.332-.346.507-.75.507-1.162 0-.417-.178-.817-.517-1.153l-1.845-1.85zm1.204 3.538c-.13.14-.266.27-.41.41-.218.208-.44.427-.65.672-.338.363-.738.534-1.262.534-.05 0-.104 0-.155-.003-.998-.064-1.925-.454-2.62-.787-1.902-.92-3.572-2.227-4.96-3.884-1.146-1.38-1.912-2.658-2.42-4.03-.312-.836-.426-1.487-.376-2.102.035-.393.186-.72.465-.998L3.53 2.146c.165-.155.34-.24.51-.24.213 0 .384.13.492.236.215.202.41.4.615.612.104.108.212.215.32.326l.916.917c.357.356.357.686 0 1.042-.097.096-.19.194-.29.288-.28.29-.55.558-.842.82-.305.306-.25.588-.19.78.248.608.584 1.152 1.095 1.8.93 1.146 1.91 2.037 2.987 2.72.138.086.28.157.413.224.12.06.236.118.333.178.014.007.027.017.04.024.115.057.222.084.333.084.28 0 .455-.175.512-.232l1.15-1.15c.113-.114.295-.25.506-.25.21 0 .38.13.484.244l1.86 1.858c.345.343.345.696.002 1.052z" stroke-width=".5" stroke="#979797" fill="#979797" fill-rule="nonzero"/></svg>