<svg width="16" height="16" viewBox="0 0 16 16" xmlns="http://www.w3.org/2000/svg"><title>Fill 4</title><path d="M8 10c-1.103 0-2-.897-2-2s.897-2 2-2 2 .897 2 2-.897 2-2 2zm0-5C6.346 5 5 6.346 5 8s1.346 3 3 3 3-1.346 3-3-1.346-3-3-3zm7 3.375c0 .132-.132.318-.256.362l-1.34.474-.01.03c-.29.165-.517.42-.644.727-.12.293-.145.617-.07.923l-.023.034.633 1.324c.058.12.02.34-.075.436l-.53.53c-.06.06-.182.103-.296.103-.056 0-.106-.01-.142-.027l-1.325-.633-.034.023c-.31-.076-.632-.05-.922.07-.305.126-.56.352-.723.637l-.032.01-.476 1.347c-.045.127-.228.256-.363.256h-.75c-.133 0-.316-.13-.36-.256l-.478-1.346-.03-.01c-.165-.286-.418-.512-.723-.638-.312-.13-.66-.148-.988-.053l-.027-.01-1.266.604c-.11.053-.347.015-.436-.075l-.53-.53c-.096-.095-.134-.315-.075-.437l.615-1.29-.014-.028c.087-.32.067-.657-.06-.96-.126-.307-.352-.56-.637-.725l-.01-.032-1.347-.476C1.13 8.692 1 8.51 1 8.375v-.75c0-.134.13-.317.256-.362L2.65 6.77l.006-.04c.265-.165.475-.408.594-.697.127-.305.147-.644.06-.963l.015-.03-.615-1.288c-.058-.12-.02-.34.075-.436l.53-.53c.09-.09.327-.128.438-.075l1.264.605.028-.01c.327.093.675.075.987-.054.306-.126.56-.352.723-.637l.032-.01.476-1.348C7.308 1.13 7.49 1 7.625 1h.75c.132 0 .318.13.362.256L9.2 2.562l.023.012c.162.304.425.545.744.677.29.122.615.146.923.07l.034.023 1.324-.632c.11-.052.347-.013.436.075l.53.53c.096.096.134.316.075.438l-.51 1.067-.123.22.038.067c-.078.31-.056.64.067.937.18.437.56.764 1.02.88l.962.34c.127.044.256.226.256.36v.75zm.078-2.054l-.986-.348-.055-.016c-.16-.037-.29-.144-.35-.295-.054-.126-.05-.268.008-.397l.117-.218-.017-.03.397-.83c.24-.504.124-1.18-.27-1.576l-.53-.532c-.248-.247-.623-.394-1.003-.394-.205 0-.403.043-.573.124l-1.066.507c-.127.06-.273.065-.4.01-.13-.052-.227-.155-.276-.29L9.68.922C9.494.397 8.933 0 8.375 0h-.75c-.558 0-1.12.397-1.305.922l-.395 1.113c-.05.135-.146.24-.275.292-.128.053-.274.048-.4-.01l-1.066-.51c-.17-.08-.37-.124-.574-.124-.38 0-.754.148-1.002.395l-.53.53c-.394.395-.51 1.072-.27 1.575l.507 1.066c.06.13.065.272.01.4-.052.13-.155.227-.29.276L.922 6.32C.397 6.506 0 7.067 0 7.625v.75c0 .558.396 1.118.922 1.305l1.113.395c.135.05.238.147.29.276.055.13.05.27-.01.402l-.507 1.065c-.24.503-.125 1.18.27 1.575l.53.53c.247.247.622.395 1.002.395.204 0 .403-.043.573-.124l1.066-.508c.127-.06.27-.064.4-.01.13.052.226.156.276.29l.394 1.112c.186.526.747.923 1.305.923h.75c.558 0 1.12-.397 1.305-.922l.395-1.112c.05-.135.147-.24.276-.292.128-.053.274-.048.402.01l1.065.508c.17.082.368.125.572.125.38 0 .755-.148 1.002-.395l.53-.53c.395-.395.51-1.072.27-1.575l-.507-1.066c-.06-.13-.065-.27-.01-.4.052-.128.156-.226.29-.275l1.113-.395c.525-.186.922-.747.922-1.305v-.75c0-.558-.397-1.12-.922-1.304z" fill="#00AEE6" fill-rule="evenodd"/></svg>