<svg width="17" height="18" viewBox="0 0 17 18" xmlns="http://www.w3.org/2000/svg"><title>Fill 17</title><path d="M12.503 4.584c-.11-.11-.288-.11-.398 0l-.398.397c-.11.11-.11.29 0 .4l3.06 3.058h-8.86c-.156 0-.282.126-.282.28v.563c0 .157.126.283.28.283h8.862l-3.06 3.06c-.11.11-.11.287 0 .397l.398.398c.11.11.288.11.398 0L16.92 9l-4.417-4.416zm-4.91 12.29h-4.59C1.774 14.45 1.126 11.735 1.126 9c0-2.733.65-5.448 1.88-7.875h4.59c.154 0 .28-.126.28-.28V.28c0-.154-.126-.28-.28-.28h-4.59C2.58 0 2.19.238 2 .617.692 3.199 0 6.097 0 9c0 2.902.692 5.8 2 8.384.192.378.58.616 1.004.616h4.59c.155 0 .28-.126.28-.28v-.564c0-.155-.125-.28-.28-.28z" fill="#FFF" fill-rule="evenodd"/></svg>