<svg width="15" height="6" viewBox="0 0 15 6" xmlns="http://www.w3.org/2000/svg" xmlns:xlink="http://www.w3.org/1999/xlink"><defs><path d="M.445 5H-72c-2.76 0-5 2.234-5 5v135.004c0 2.76 2.23 4.996 5 4.996H87c2.76 0 5-2.25 5-4.99V9.99C92 7.236 89.77 5 87 5H14.61L7.67 0 .445 5z" id="a"/></defs><g fill="none" fill-rule="evenodd"><use fill="#FFF" xlink:href="#a"/><path stroke="#D9E0E4" d="M7.75.553L3.62 3.41l-2.89 2-.13.09H-72c-2.487 0-4.5 2.012-4.5 4.5v135.004c0 2.486 2.01 4.496 4.5 4.496H87c2.48 0 4.5-2.02 4.5-4.49V9.99c0-2.482-2.01-4.49-4.5-4.49H14.45l-.13-.094-2.777-2L7.58.55l.17.003z"/></g></svg>