<svg width="155" height="11" viewBox="0 0 155 11" xmlns="http://www.w3.org/2000/svg"><title>Group 2</title><g fill="#FFF" fill-rule="evenodd"><path d="M3.276.274L5.22 8.509h.03L7.163.274h3.248v10.451H8.318V1.987h-.015l-2.015 8.738h-2.21L2.12 1.987h-.03v8.738H0V.274h3.276zM17.214 0c1.424 0 5.161.604 5.161 5.5 0 4.895-3.737 5.5-5.161 5.5-1.424 0-5.161-.606-5.161-5.5 0-4.896 3.737-5.5 5.161-5.5zm0 9.157c-1.216 0-2.922-.735-2.922-3.657 0-2.923 1.706-3.657 2.922-3.657 1.216 0 2.921.734 2.921 3.657 0 2.922-1.705 3.657-2.921 3.657zM30.96 3.7c-.179-.633-.535-1.857-2.389-1.857-1.081 0-2.713.75-2.713 3.7 0 1.871.816 3.614 2.713 3.614 1.247 0 2.122-.735 2.39-2.016h2.238C32.753 9.415 31.226 11 28.527 11c-2.862 0-4.907-1.887-4.907-5.485C23.62 1.859 25.785 0 28.558 0c3.218 0 4.523 2.16 4.641 3.7H30.96zM39.5 0c1.424 0 5.16.604 5.16 5.5 0 4.895-3.736 5.5-5.16 5.5-1.423 0-5.16-.606-5.16-5.5C34.34.604 38.077 0 39.5 0zm0 9.157c-1.216 0-2.921-.735-2.921-3.657 0-2.923 1.705-3.657 2.922-3.657 1.216 0 2.92.734 2.92 3.657 0 2.922-1.704 3.657-2.92 3.657zM54.197.274v1.799h-5.68v2.16h2.803c2.077 0 3.678 1.224 3.678 3.296 0 2.06-1.557 3.196-3.707 3.196h-5.012V.274h7.918zm-5.68 8.652V6.03h2.537c1.009 0 1.705.462 1.705 1.383 0 .865-.622 1.512-1.705 1.512h-2.536zM73.9.274v1.799h-4.695v8.652h-2.24V.274H73.9zm4.327 10.452L74.398.274h2.359l.756 2.16h3.959l.697-2.16H84.6l-3.78 10.452h-2.594zm1.26-2.36l-1.38-4.134h2.878l-1.469 4.134h-.03zM61.885.274l3.781 10.452h-2.431l-2.654-8.09h-.03l-2.73 8.09h-2.356L59.29.274h2.595zm22.488 3.109C84.492 1.656 85.812 0 88.57 0c2.982 0 4.109 1.599 4.109 2.763 0 1.326-.758 2.118-1.854 2.42 1.17.201 2.253 1.122 2.253 2.75 0 1.612-1.334 3.067-4.358 3.067-3.678 0-4.509-1.8-4.509-3.5h2.105c0 .922.416 1.7 2.328 1.7 1.35 0 2.196-.576 2.196-1.499 0-1.05-.891-1.582-1.973-1.582h-1.038V4.362h.98c1.067 0 1.72-.503 1.72-1.353 0-.791-.727-1.208-1.914-1.208-1.497 0-2.046.589-2.136 1.582h-2.105zM109.116 0c.543 0 1.05.041 1.52.123.472.082.902.184 1.291.307l-.322 1.66a8.41 8.41 0 0 0-2.197-.307c-.983 0-1.731.304-2.243.913-.512.61-.768 1.534-.768 2.773 0 .605.05 1.135.153 1.59.103.456.274.838.515 1.145.24.307.558.538.952.691.395.154.879.23 1.452.23.123 0 .284-.007.484-.022.2-.016.415-.039.645-.07.23-.03.461-.066.692-.107.23-.041.448-.087.653-.138l.368 1.567a5.31 5.31 0 0 1-.745.238c-.271.066-.553.125-.845.177a10.16 10.16 0 0 1-1.728.153c-.973 0-1.78-.138-2.42-.415-.64-.276-1.152-.658-1.536-1.144a4.312 4.312 0 0 1-.807-1.705 9.178 9.178 0 0 1-.23-2.113c0-.614.077-1.25.23-1.905a5.018 5.018 0 0 1 .807-1.79c.384-.537.906-.98 1.567-1.329.66-.348 1.498-.522 2.512-.522zm11.958 10.77l-.738-2.412h-3.856l-.753 2.412h-2.258L117.064.215h2.857l3.488 10.555h-2.335zm-1.982-6.73l-.615-2.289h-.077l-.645 2.366-.783 2.704h2.903l-.783-2.78zm9.791 2.582l.907-2.55L131.203.2h2.228l-3.61 9.095c-.247.624-.556 1.065-.93 1.32-.374.257-.843.385-1.406.385-.235 0-.525-.015-.868-.046a7.068 7.068 0 0 1-1.267-.261l.353-1.537c.297.062.54.105.73.131.19.026.36.038.514.038.205 0 .38-.04.523-.122.143-.082.266-.257.368-.523l.246-.645h-.568L124.136.2h2.258l1.49 3.871.922 2.55h.077zm12.91 4.148V1.859h-4.102l.016 8.91h-2.29V.2h8.68v10.57h-2.304zm5.214 0V.2h7.266v1.628h-5.008v8.942h-2.258z"/></g></svg>