<svg width="292" height="143" viewBox="0 0 292 143" xmlns="http://www.w3.org/2000/svg" xmlns:xlink="http://www.w3.org/1999/xlink"><title>Logo</title><defs><filter x="-.3%" y="-.5%" width="101%" height="102.5%" filterUnits="objectBoundingBox" id="a"><feOffset dy=".5" in="SourceAlpha" result="shadowOffsetOuter1"/><feGaussianBlur stdDeviation=".25" in="shadowOffsetOuter1" result="shadowBlurOuter1"/><feColorMatrix values="0 0 0 0 0 0 0 0 0 0 0 0 0 0 0 0 0 0 0.5 0" in="shadowBlurOuter1" result="shadowMatrixOuter1"/><feMerge><feMergeNode in="shadowMatrixOuter1"/><feMergeNode in="SourceGraphic"/></feMerge></filter><path id="c" d="M0 0h86.798v32.774H0z"/><filter x="-1.2%" y="-1.5%" width="102.3%" height="106.1%" filterUnits="objectBoundingBox" id="b"><feOffset dy=".5" in="SourceAlpha" result="shadowOffsetOuter1"/><feGaussianBlur stdDeviation=".25" in="shadowOffsetOuter1" result="shadowBlurOuter1"/><feColorMatrix values="0 0 0 0 0 0 0 0 0 0 0 0 0 0 0 0 0 0 0.5 0" in="shadowBlurOuter1"/></filter></defs><g fill="none" fill-rule="evenodd"><g filter="url(#a)" transform="translate(1)"><path fill="#FFF" d="M10.198 65.25l6.035 26.434h.093l5.957-26.435h10.104v33.54h-6.518V70.746h-.047l-6.268 28.043h-6.877L6.596 70.746h-.094v28.043H0v-33.54zM53.547 64.375c4.428 0 16.061 1.936 16.061 17.644 0 15.708-11.633 17.629-16.061 17.629-4.428 0-16.061-1.937-16.061-17.645S49.119 64.36 53.547 64.36m0 29.386c3.79 0 9.09-2.357 9.09-11.726s-5.3-11.742-9.09-11.742-9.09 2.358-9.09 11.742 5.3 11.726 9.09 11.726M96.32 76.226c-.562-2.03-1.67-5.949-7.439-5.949-3.368 0-8.436 2.405-8.436 11.867 0 6.011 2.542 11.601 8.436 11.601a7.3 7.3 0 0 0 7.438-6.464h6.97c-1.388 7.292-6.143 12.382-14.533 12.382-8.903 0-15.265-6.058-15.265-17.597 0-11.54 6.736-17.691 15.359-17.691 10.01 0 14.034 6.933 14.44 11.867h-6.97v-.016zM122.874 64.375c4.429 0 16.046 1.936 16.046 17.644 0 15.708-11.617 17.629-16.046 17.629-4.428 0-16.06-1.937-16.06-17.645s11.632-17.644 16.06-17.644m0 29.386c3.79 0 9.091-2.357 9.091-11.726s-5.302-11.742-9.09-11.742c-3.79 0-9.092 2.358-9.092 11.742s5.302 11.726 9.091 11.726M168.594 65.296v5.777h-17.668v6.933h8.717c6.456 0 11.445 3.935 11.445 10.587 0 6.651-4.85 10.258-11.539 10.258h-15.593V65.296h24.638zm-17.668 27.762h7.89a4.783 4.783 0 0 0 3.741-1.223 4.797 4.797 0 0 0 1.561-3.617c0-2.951-2.167-4.435-5.301-4.435h-7.89v9.291-.016zM229.875 65.25v5.777h-14.596v27.762h-6.97v-33.54zM243.347 98.789l-11.882-33.493h7.329l2.355 6.933h12.318l2.168-6.933h7.562l-11.757 33.54h-8.077l-.016-.047zm3.914-7.573h.094l4.568-13.257h-8.95l4.288 13.257zM192.513 65.25h-8.077L172.54 98.788h7.328l8.499-25.951h.093l8.249 25.95h7.563zM262.464 75.227c.36-5.543 4.476-10.93 13.052-10.93 9.278 0 12.786 5.121 12.786 8.869a7.51 7.51 0 0 1-5.77 7.807 8.445 8.445 0 0 1 7.018 8.822c0 5.168-4.148 9.837-13.55 9.837-11.446 0-14.035-5.777-14.035-11.227h6.55c0 2.951 1.294 5.45 7.235 5.45 4.194 0 6.83-1.843 6.83-4.81 0-3.372-2.776-5.074-6.144-5.074h-3.228v-5.637h3.119c3.321 0 5.348-1.561 5.348-4.34 0-2.78-2.26-3.873-5.956-3.873-4.678 0-6.362 1.89-6.643 5.075h-6.55l-.062.03zM269.138 39.376c0-19.002-17.152-37.864-27.116-39.363a26.109 26.109 0 0 1 1.06 7.807c0 10.321-17.605 16.926-17.605 33.633 0 5.106 1.669 13.834 6.893 18.144a15.41 15.41 0 0 1 14.922-11.593 15.41 15.41 0 0 1 14.923 11.593c1.778-1.468 6.923-7.542 6.923-20.299"/><path d="M247.292 47.949c5.926 0 10.838 4.34 11.945 5.59a16.02 16.02 0 0 0 3.733-13.568 16.002 16.002 0 0 0-8.411-11.275s-5.66-3.248-7.376-5.949a15.489 15.489 0 0 1-6.814 5.606 34.947 34.947 0 0 0-4.413 3.263c-5.999 6.007-6.259 15.663-.592 21.985.888-1.015 5.94-5.668 11.882-5.668" fill="#00ADE5"/></g><g transform="translate(204.235 108.063)"><use fill="#000" filter="url(#b)" xlink:href="#c"/><use fill="#FFF" xlink:href="#c"/></g><path d="M224.379 116.255c.588 0 1.136.045 1.646.133.51.089.976.2 1.397.332l-.35 1.794a9.114 9.114 0 0 0-2.378-.332c-1.063 0-1.873.33-2.427.988-.554.659-.831 1.658-.831 2.998 0 .653.055 1.226.166 1.719.11.492.297.905.557 1.237.26.332.604.581 1.031.747.427.166.95.25 1.571.25.134 0 .308-.009.524-.025.216-.017.45-.042.699-.075.25-.033.499-.072.748-.116.25-.045.485-.095.707-.15l.399 1.694c-.244.1-.513.186-.807.258-.293.072-.598.135-.914.19a11.009 11.009 0 0 1-1.871.167c-1.053 0-1.926-.15-2.619-.449-.693-.299-1.247-.711-1.663-1.237a4.659 4.659 0 0 1-.873-1.844 9.91 9.91 0 0 1-.25-2.283c0-.665.084-1.351.25-2.06a5.422 5.422 0 0 1 .873-1.934c.416-.582.981-1.06 1.696-1.437s1.622-.565 2.719-.565zm13.552 11.643l-.798-2.608h-4.174l-.814 2.608H229.7l3.891-11.41h3.093l3.775 11.41h-2.528zm-2.145-7.275l-.665-2.474h-.083l-.698 2.557-.849 2.923h3.143l-.848-3.006zm11.208 2.79l.981-2.757 1.53-4.185h2.41l-3.907 9.832c-.266.676-.601 1.152-1.006 1.428-.404.277-.912.416-1.521.416-.255 0-.568-.017-.94-.05-.371-.033-.828-.127-1.372-.282l.383-1.661c.321.066.585.113.79.14a4.2 4.2 0 0 0 .557.042c.221 0 .41-.044.565-.132.155-.089.288-.277.4-.565l.265-.698h-.615l-3.658-8.47h2.444l1.613 4.185.998 2.757h.083zm14.583 4.485v-9.633h-4.44l.017 9.633h-2.478V116.47h9.395v11.427h-2.494zm6.252 0V116.47h7.866v1.76h-5.421v9.667h-2.445z" fill="#10496A"/></g></svg>