<svg width="15" height="20" viewBox="0 0 15 20" xmlns="http://www.w3.org/2000/svg"><title>zayavka_ico</title><path d="M13.632 17.373c0 .167-.155.393-.303.44a19.107 19.107 0 0 1-11.787 0c-.147-.047-.303-.273-.303-.44V2.626c0-.167.156-.393.303-.441a18.914 18.914 0 0 1 8.174-.795 20.08 20.08 0 0 0-.835 1.173c-.384.586-.34 1.448.1 2.005l4.651 5.877v6.928zM9.914 3.253c.26-.397.545-.79.844-1.179l1.69 4.872L9.95 3.788c-.102-.13-.121-.404-.036-.535zM11.493.41l-.354-.066a20.221 20.221 0 0 0-9.978.652C.5 1.211 0 1.912 0 2.625v14.748c0 .714.5 1.415 1.16 1.63 2.03.662 4.14.997 6.276.997 2.135 0 4.246-.335 6.275-.996.662-.216 1.16-.917 1.16-1.631v-7.231L11.494.409zm-5.606 14.59h-1.86c-.17 0-.31.141-.31.313v.625c0 .172.14.313.31.313h1.86c.17 0 .31-.14.31-.313v-.625a.312.312 0 0 0-.31-.312zm2.478-3.75H4.028c-.17 0-.31.141-.31.313v.625c0 .172.14.312.31.312h4.337c.17 0 .31-.14.31-.312v-.625a.312.312 0 0 0-.31-.313zm0-3.75H4.028c-.17 0-.31.14-.31.313v.625c0 .172.14.312.31.312h4.337c.17 0 .31-.14.31-.312v-.625a.312.312 0 0 0-.31-.313z"/></svg>